<svg width="38" height="38" viewBox="0 0 38 38" fill="none" xmlns="http://www.w3.org/2000/svg">
<path d="M30.0833 21.5112V15.8333C30.0833 10.7398 26.6238 6.44892 21.9371 5.1585C21.4732 3.99 20.3395 3.16667 19 3.16667C17.6605 3.16667 16.5268 3.99 16.0629 5.1585C11.3763 6.4505 7.91667 10.7398 7.91667 15.8333V21.5112L5.21392 24.2139C5.0666 24.3607 4.94977 24.5352 4.87015 24.7273C4.79053 24.9194 4.7497 25.1254 4.75 25.3333V28.5C4.75 28.9199 4.91682 29.3227 5.21375 29.6196C5.51068 29.9165 5.91341 30.0833 6.33334 30.0833H31.6667C32.0866 30.0833 32.4893 29.9165 32.7863 29.6196C33.0832 29.3227 33.25 28.9199 33.25 28.5V25.3333C33.2503 25.1254 33.2095 24.9194 33.1299 24.7273C33.0502 24.5352 32.9334 24.3607 32.7861 24.2139L30.0833 21.5112ZM30.0833 26.9167H7.91667V25.9888L10.6194 23.2861C10.7667 23.1393 10.8836 22.9648 10.9632 22.7727C11.0428 22.5806 11.0836 22.3746 11.0833 22.1667V15.8333C11.0833 11.4681 14.6348 7.91667 19 7.91667C23.3653 7.91667 26.9167 11.4681 26.9167 15.8333V22.1667C26.9167 22.5878 27.0829 22.99 27.3806 23.2861L30.0833 25.9888V26.9167ZM19 34.8333C19.9806 34.8346 20.9371 34.5303 21.7368 33.9628C22.5364 33.3952 23.1394 32.5927 23.4618 31.6667H14.5382C14.8606 32.5927 15.4636 33.3952 16.2632 33.9628C17.0629 34.5303 18.0194 34.8346 19 34.8333V34.8333Z" fill="#FFD700"/>
</svg>
