<svg width="35" height="35" viewBox="0 0 35 35" fill="none" xmlns="http://www.w3.org/2000/svg">
<path d="M31.8237 10.8369C31.6896 10.643 31.5105 10.4846 31.3017 10.3751C31.0929 10.2656 30.8607 10.2084 30.625 10.2083H10.694L9.01104 6.16875C8.79038 5.63678 8.41672 5.18232 7.93745 4.86297C7.45818 4.54363 6.89487 4.3738 6.31896 4.375H2.91666V7.29167H6.31896L13.2373 23.8948C13.3481 24.1604 13.535 24.3873 13.7746 24.5469C14.0141 24.7065 14.2955 24.7917 14.5833 24.7917H26.25C26.8581 24.7917 27.4021 24.414 27.6165 23.8467L31.9915 12.18C32.0741 11.9592 32.1021 11.7217 32.0729 11.4878C32.0437 11.2539 31.9582 11.0305 31.8237 10.8369V10.8369ZM25.2394 21.875H15.556L11.9102 13.125H28.5206L25.2394 21.875Z" fill="#FFD700"/>
<path d="M15.3125 30.625C16.5206 30.625 17.5 29.6456 17.5 28.4375C17.5 27.2294 16.5206 26.25 15.3125 26.25C14.1044 26.25 13.125 27.2294 13.125 28.4375C13.125 29.6456 14.1044 30.625 15.3125 30.625Z" fill="#FFD700"/>
<path d="M25.5208 30.625C26.729 30.625 27.7083 29.6456 27.7083 28.4375C27.7083 27.2294 26.729 26.25 25.5208 26.25C24.3127 26.25 23.3333 27.2294 23.3333 28.4375C23.3333 29.6456 24.3127 30.625 25.5208 30.625Z" fill="#FFD700"/>
</svg>
