<svg width="296" height="97" viewBox="0 0 296 97" fill="none" xmlns="http://www.w3.org/2000/svg">
<g clip-path="url(#clip0_2_3)">
<path d="M27.2209 84.4698L30.7496 81.0956L8.3175 59.645L4.78887 63.0192L14.1146 72.1779L0 85.6749L3.52864 89.0492L17.6432 75.5522L27.2209 84.4698V84.4698ZM21.1718 69.7677L25.9607 74.3471L72.3371 29.9998V19.877H61.7512L15.3748 64.2243L20.1636 68.8037L43.0998 46.63C43.3518 46.389 43.8559 46.389 44.108 46.63C44.6121 47.1121 44.6121 47.5941 44.108 47.8351L21.1718 69.7677V69.7677Z" fill="black"/>
<path d="M102.27 0H99.7753V97H102.27V0Z" fill="black"/>
<g clip-path="url(#clip1_2_3)">
<path d="M117.106 82.0124C116.946 81.8631 116.815 71.0418 116.815 57.9704V34.2006L110.363 31.3218C105.617 29.2094 103.91 28.2796 104.035 27.8244C104.148 27.2759 105.975 27.1942 120.645 27.1047L137.131 27.0032L141.173 31.6715L141.284 30.2127C141.345 29.4113 141.49 28.357 141.606 27.8707L141.816 26.9915L168.21 27.1969L169.533 30.5504L174.154 26.9868L192.347 27.1969L192.896 28.753C193.197 29.6089 193.583 31.274 193.754 32.4488L194.062 34.5885L199.391 27.0024H258.505L260.865 28.7997C262.181 29.8034 263.38 30.4492 263.575 30.2586C263.768 30.0722 264.092 29.3055 264.296 28.5585L264.667 27.1969H284.191C301.301 27.1969 303.757 27.2697 303.841 27.7882C303.925 28.1967 302.321 29.1382 298.595 30.8694C295.635 32.2388 292.809 33.6432 292.309 33.9894L291.418 34.6157L291.439 57.8408C291.453 73.5188 291.319 81.1437 291.027 81.2994C290.789 81.4367 285.448 78.5606 279.121 74.9193C272.793 71.2663 267.464 68.2668 267.215 68.2668C266.925 68.2668 266.861 69.0488 267.028 70.5427C267.469 74.5108 267.444 74.5108 258.952 72.0482C252.999 70.317 251.583 69.7763 251.209 69.0293C250.829 68.3291 249.818 67.8661 246.838 67.0297C244.706 66.4306 242.791 65.9366 242.591 65.9366C242.381 65.9334 242.321 67.4265 242.455 69.36C242.586 71.2468 242.531 73.0325 242.333 73.3281C242.039 73.7716 239.561 73.1764 228.845 70.0836C221.602 67.9984 215.44 66.1972 215.107 66.0766C214.722 65.9385 212.976 67.5899 210.07 70.8617C207.614 73.6043 205.366 75.9191 205.116 75.958C204.841 76.0202 202.102 73.8806 199.038 71.2118C195.816 68.403 193.085 66.3489 192.627 66.3489C192.169 66.3429 189.405 66.808 186.466 67.3799C182.137 68.2318 181.138 68.5469 181.138 69.0994C181.138 69.6323 179.601 70.2548 174.019 71.9938C169.273 73.4682 166.775 74.079 166.484 73.8222C166.255 73.6082 165.964 72.0093 165.834 70.2704C165.639 67.6094 165.496 67.1348 164.935 67.2865C164.568 67.3865 159.357 68.8932 153.321 70.6321C147.284 72.3711 142.081 73.6938 141.706 73.5654C141.173 73.3748 141.115 72.8963 141.352 70.8111C141.543 69.1422 141.494 68.2863 141.206 68.2863C140.967 68.2863 135.67 71.3713 129.425 75.1332C117.186 82.5248 117.352 82.447 116.895 82.0191L117.106 82.0124Z" fill="#E80007"/>
<path d="M118.355 56.8033V33.1114L105.658 27.2759L137.296 27.2094L143.124 33.6284L143.366 27.2094H168.261L168.939 29.388C169.555 31.372 169.68 31.5159 170.321 31.0102C170.709 30.7044 171.974 29.7225 173.136 28.8316L175.242 27.2094H192.352L193.03 29.4735C193.404 30.7184 193.713 32.9515 193.722 34.4531L193.732 37.1491L200.56 27.2288L258.841 27.2193L264.961 31.8099L266.131 27.2193L303.681 27.2373L291.4 33.2673L291.397 36.6441C291.395 38.5036 291.21 40.4721 290.987 41.0012C290.723 41.6509 290.723 42.001 290.987 42.001C291.245 42.001 291.393 48.8869 291.393 60.869C291.393 71.2561 291.303 79.737 291.193 79.737C291.083 79.737 285.573 76.5975 278.912 72.7733L266.84 65.8097V72.6566L259.846 70.6064C253.934 68.8713 252.852 68.4317 252.727 67.7393C252.654 67.2919 252.538 66.9223 252.469 66.9223C252.4 66.9223 250.212 66.3115 247.598 65.5607C244.992 64.8137 242.686 64.1991 242.436 64.1991C242.177 64.1979 242.069 65.7241 242.15 68.245L242.28 72.2909L235.703 70.3886C232.081 69.3421 226.169 67.6498 222.589 66.6305C217.386 65.1522 216.012 64.627 215.929 64.0435C215.839 63.5183 214.372 64.9227 210.725 68.9842L205.646 74.664L199.693 69.451C196.363 66.5488 193.532 64.3547 193.324 64.5492C193.095 64.7083 190.247 65.3234 186.996 65.9147C181.834 66.86 181.084 67.0896 180.96 67.7859C180.855 68.4434 179.682 68.9414 174.257 70.6259L167.68 72.6722V69.0075C167.68 66.9923 167.534 65.3428 167.355 65.3428C167.106 65.3428 148.164 70.7504 143.751 72.0731C142.956 72.3131 142.923 72.1754 143.052 69.0036L143.187 65.6852L140.348 67.3891C138.787 68.3267 133.229 71.6685 128.026 74.7807C122.822 77.9202 118.451 80.4995 118.368 80.4995C118.284 80.4995 118.18 69.84 118.18 56.8075L118.355 56.8033ZM132.509 66.568L142.708 60.8492L142.932 43.5374H137.936L139.389 41.4172C140.676 39.5381 140.842 39.0013 140.842 36.7099V34.1073L136.18 29.1666L115.24 29.2121L121.359 31.3673L121.369 51.8692C121.377 66.5357 121.509 72.3322 121.84 72.3322C122.092 72.3155 126.877 69.7296 132.497 66.5746L132.509 66.568ZM130.427 53.4965V46.2995H133.758V59.1375L132.405 59.9078C131.66 60.3318 130.91 60.678 130.74 60.6819C130.568 60.6827 130.427 57.4452 130.427 53.4849V53.4965ZM130.427 38.5189V36.1847H133.758V40.8531H130.427V38.5189ZM289.453 57.9704V43.5763H285.248L289.453 39.0246V31.5552L295.905 29.2055L280.711 29.1569V37.949L277.38 40.9873V29.1608H268.222V60.5555L272.468 63.0453C274.795 64.4147 276.839 65.5934 277.047 65.6674C277.237 65.7386 277.392 61.5825 277.392 56.4084V47.0328L278.329 47.0602C280.581 47.1259 280.552 47.0072 280.531 55.541C280.522 59.8982 280.607 64.4498 280.722 65.6169L280.93 67.7566L285.093 70.0052C287.383 71.2423 289.298 72.2693 289.339 72.2888C289.397 72.3092 289.443 65.8309 289.443 57.9336L289.453 57.9704ZM178.301 56.7216L178.414 49.5635L181.52 46.7313V54.5119C181.52 63.0706 181.355 62.6037 184.226 61.9035C185.025 61.7063 186.761 61.3433 188.077 61.0982L190.47 60.6547V29.1822H175.817L169.655 33.8894V44.3543H173.985L169.697 48.4392L169.42 66.8014L178.162 63.8914L178.301 56.7216ZM178.397 38.4761V36.1147L181.519 36.3987L181.618 40.8336H178.396L178.397 38.4761ZM216.28 48.7076L216.293 40.8492H203.804V36.103L211.297 36.4407L216.293 29.1658H201.764L195.103 38.4636V46.2831H208.424V50.6014C208.424 54.8418 208.399 54.9585 207.151 56.4368L205.877 57.9424L200.59 53.6241C194.512 48.6446 194.803 48.5668 195.303 55.1219L195.589 58.7088L205.705 66.9951L216.279 56.608L216.28 48.7076ZM240.841 58.5111C240.841 53.9206 240.763 50.147 240.667 50.147C240.572 50.147 239.997 51.5358 239.394 53.2359C238.707 55.1694 238.107 56.2587 237.799 56.1458C237.527 56.0466 235.339 55.22 232.928 54.3057L228.557 52.6485L228.315 46.2684H234.477L235.571 43.907C236.175 42.6076 236.666 41.3821 236.666 41.1837C236.666 40.9826 234.806 40.8204 232.503 40.8204H228.34V36.2298H232.316C234.502 36.2298 236.35 36.166 236.421 36.0878C236.79 35.6832 240.409 29.591 240.409 29.3965C240.409 29.2572 235.746 29.1429 230.043 29.1429H219.677L219.534 31.3798C219.456 32.6091 219.392 39.5494 219.392 46.7854V59.9735L229.591 63.397C235.211 65.2799 240.04 66.836 240.331 66.8555C240.733 66.8826 240.852 64.9764 240.852 58.5302L240.841 58.5111ZM265.403 57.6242V48.7543L260.782 44.5138L265.195 44.1248L265.427 34.2823L258.6 29.1471H243.738V59.3748L247.797 60.6703C250.029 61.3822 252.085 62.0435 252.377 62.1369C252.782 62.2715 252.897 60.6002 252.897 54.5897V46.8869L256.227 49.9253V63.269L260.286 64.8601C262.518 65.7354 264.574 66.459 264.865 66.4668C265.267 66.477 265.386 64.4555 265.386 57.5969L265.403 57.6242ZM252.914 38.4839V36.173L256.244 36.2158V40.8064H252.914V38.4839ZM156.333 62.8372L166.532 60.0128V28.9293L155.792 28.9079C149.88 28.8961 145.051 28.9164 145.051 28.953C145.051 28.9896 146.046 30.6609 147.258 32.6721L149.464 36.3213L157.499 36.5434L157.335 40.7838L152.839 40.784C150.379 40.784 148.343 40.9154 148.343 41.0757C148.341 41.236 148.856 42.4568 149.488 43.7873L150.637 46.207L157.298 46.228V52.6081L147.598 56.2027L146.458 52.3902C145.829 50.2933 145.246 48.5777 145.159 48.5777C145.071 48.5777 145.001 52.4291 145.001 57.1364C145.001 63.711 145.121 65.695 145.522 65.695C145.808 65.6894 150.642 64.4151 156.262 62.8629L156.333 62.8372Z" fill="#020000"/>
</g>
</g>
<defs>
<clipPath id="clip0_2_3">
<rect width="296" height="97" fill="white"/>
</clipPath>
<clipPath id="clip1_2_3">
<rect width="202.876" height="57.2459" fill="white" transform="translate(102.27 25.4426)"/>
</clipPath>
</defs>
</svg>
