<svg width="296" height="97" viewBox="0 0 296 97" fill="none" xmlns="http://www.w3.org/2000/svg">
<g clip-path="url(#clip0_2_3)">
<path d="M27.2209 84.4698L30.7496 81.0956L8.3175 59.645L4.78887 63.0192L14.1146 72.1779L0 85.6749L3.52864 89.0492L17.6432 75.5522L27.2209 84.4698ZM21.1718 69.7677L25.9607 74.3471L72.3371 29.9998V19.877H61.7512L15.3748 64.2243L20.1636 68.8037L43.0998 46.63C43.3518 46.389 43.8559 46.389 44.108 46.63C44.6121 47.1121 44.6121 47.5941 44.108 47.8351L21.1718 69.7677Z" fill="white"/>
<path d="M102.27 0H99.7753V97H102.27V0Z" fill="white"/>
<path d="M116.836 76.5698C116.676 76.4204 116.546 65.5992 116.546 52.5278V28.758L110.093 25.8792C105.347 23.7667 103.64 22.837 103.765 22.3818C103.878 21.8333 105.705 21.7516 120.375 21.6621L136.861 21.5606L140.903 26.2289L141.014 24.7701C141.075 23.9687 141.22 22.9144 141.336 22.4281L141.547 21.5489L167.94 21.7543L169.264 25.1077L173.885 21.5442L192.077 21.7543L192.626 23.3104C192.928 24.1663 193.313 25.8313 193.484 27.0062L193.792 29.1459L199.121 21.5598H258.235L260.596 23.3571C261.911 24.3608 263.11 25.0066 263.306 24.816C263.498 24.6296 263.822 23.8628 264.026 23.1159L264.397 21.7543H283.922C301.031 21.7543 303.488 21.827 303.571 22.3456C303.655 22.7541 302.051 23.6956 298.326 25.4267C295.366 26.7961 292.539 28.2005 292.039 28.5468L291.149 29.1731L291.169 52.3982C291.183 68.0761 291.049 75.7011 290.757 75.8567C290.519 75.9941 285.179 73.118 278.851 69.4766C272.523 65.8236 267.195 62.8242 266.945 62.8242C266.656 62.8242 266.591 63.6062 266.758 65.1C267.2 69.0682 267.174 69.0682 258.682 66.6056C252.729 64.8744 251.314 64.3337 250.939 63.5867C250.56 62.8865 249.549 62.4235 246.568 61.5871C244.436 60.988 242.522 60.4939 242.322 60.4939C242.111 60.4908 242.052 61.9839 242.186 63.9174C242.316 65.8042 242.261 67.5898 242.064 67.8855C241.77 68.329 239.291 67.7338 228.576 64.641C221.332 62.5558 215.171 60.7546 214.838 60.634C214.452 60.4959 212.706 62.1473 209.801 65.4191C207.344 68.1617 205.096 70.4764 204.847 70.5153C204.571 70.5776 201.833 68.4379 198.769 65.7692C195.547 62.9604 192.816 60.9063 192.358 60.9063C191.9 60.9002 189.136 61.3654 186.196 61.9372C181.867 62.7892 180.868 63.1043 180.868 63.6567C180.868 64.1897 179.332 64.8122 173.749 66.5511C169.003 68.0256 166.506 68.6363 166.214 68.3796C165.985 68.1656 165.694 66.5667 165.565 64.8277C165.37 62.1668 165.227 61.6921 164.666 61.8439C164.298 61.9438 159.087 63.4506 153.051 65.1895C147.015 66.9285 141.811 68.2512 141.436 68.1228C140.903 67.9322 140.845 67.4537 141.082 65.3685C141.273 63.6995 141.224 62.8437 140.937 62.8437C140.697 62.8437 135.4 65.9287 129.155 69.6906C116.916 77.0822 117.083 77.0044 116.625 76.5764L116.836 76.5698Z" fill="#E80007"/>
<path d="M118.085 51.3607V27.6687L105.388 21.8333L137.027 21.7668L142.855 28.1858L143.097 21.7668H167.991L168.67 23.9453C169.286 25.9294 169.411 26.0733 170.052 25.5676C170.439 25.2618 171.705 24.2799 172.866 23.389L174.972 21.7668H192.082L192.761 24.0309C193.134 25.2758 193.444 27.5088 193.452 29.0105L193.463 31.7065L200.29 21.7862L258.572 21.7767L264.691 26.3672L265.861 21.7767L303.411 21.7947L291.13 27.8247L291.127 31.2014C291.125 33.061 290.941 35.0295 290.718 35.5586C290.454 36.2083 290.454 36.5584 290.718 36.5584C290.976 36.5584 291.124 43.4442 291.124 55.4264C291.124 65.8135 291.034 74.2943 290.923 74.2943C290.813 74.2943 285.303 71.1549 278.643 67.3307L266.57 60.367V67.214L259.576 65.1638C253.665 63.4287 252.582 62.9891 252.457 62.2966C252.384 61.8492 252.268 61.4797 252.199 61.4797C252.13 61.4797 249.943 60.8689 247.328 60.1181C244.722 59.3711 242.416 58.7565 242.166 58.7565C241.907 58.7553 241.799 60.2815 241.88 62.8024L242.01 66.8483L235.433 64.9459C231.811 63.8994 225.9 62.2072 222.32 61.1879C217.116 59.7096 215.742 59.1844 215.659 58.6008C215.57 58.0757 214.102 59.4801 210.455 63.5415L205.376 69.2214L199.423 64.0084C196.093 61.1062 193.262 58.9121 193.054 59.1066C192.825 59.2657 189.978 59.8808 186.726 60.4721C181.564 61.4174 180.815 61.6469 180.69 62.3433C180.586 63.0008 179.412 63.4987 173.988 65.1832L167.41 67.2295V63.5649C167.41 61.5497 167.264 59.9002 167.086 59.9002C166.836 59.9002 147.894 65.3077 143.482 66.6304C142.687 66.8705 142.653 66.7327 142.782 63.561L142.918 60.2426L140.078 61.9465C138.517 62.8841 132.96 66.2258 127.756 69.3381C122.552 72.4776 118.181 75.0568 118.098 75.0568C118.015 75.0568 117.91 64.3974 117.91 51.3649L118.085 51.3607ZM132.239 61.1253L142.438 55.4066L142.662 38.0947H137.667L139.12 35.9745C140.406 34.0955 140.573 33.5587 140.573 31.2673V28.6647L135.91 23.724L114.97 23.7695L121.09 25.9247L121.1 46.4266C121.107 61.0931 121.24 66.8896 121.57 66.8896C121.823 66.8728 126.607 64.287 132.227 61.132L132.239 61.1253ZM130.158 48.0539V40.8569H133.488V53.6949L132.135 54.4651C131.39 54.8892 130.641 55.2354 130.47 55.2393C130.298 55.2401 130.158 52.0026 130.158 48.0423V48.0539ZM130.158 33.0763V30.7421H133.488V35.4104H130.158V33.0763ZM289.183 52.5278V38.1336H284.979L289.183 33.582V26.1126L295.636 23.7629L280.441 23.7142V32.5063L277.111 35.5447V23.7181H267.952V55.1129L272.198 57.6027C274.525 58.9721 276.569 60.1508 276.778 60.2247C276.967 60.2959 277.123 56.1399 277.123 50.9658V41.5902L278.059 41.6175C280.311 41.6833 280.282 41.5646 280.262 50.0984C280.252 54.4555 280.338 59.0072 280.452 60.1743L280.66 62.3139L284.823 64.5625C287.113 65.7997 289.028 66.8267 289.07 66.8461C289.127 66.8665 289.174 60.3882 289.174 52.4909L289.183 52.5278ZM178.032 51.279L178.145 44.1208L181.25 41.2887V49.0693C181.25 57.628 181.085 57.1611 183.956 56.4609C184.755 56.2636 186.491 55.9007 187.807 55.6556L190.201 55.2121V23.7395H175.547L169.386 28.4468V38.9117H173.715L169.427 42.9965L169.15 61.3588L177.892 58.4488L178.032 51.279ZM178.127 33.0335V30.672L181.249 30.956L181.348 35.391H178.126L178.127 33.0335ZM216.01 43.265L216.023 35.4065H203.534V30.6604L211.027 30.9981L216.023 23.7232H201.494L194.833 33.021V40.8405H208.155V45.1588C208.155 49.3992 208.129 49.5159 206.881 50.9942L205.607 52.4998L200.32 48.1815C194.242 43.2019 194.534 43.1241 195.033 49.6793L195.319 53.2661L205.435 61.5525L216.009 51.1654L216.01 43.265ZM240.572 53.0685C240.572 48.478 240.493 44.7044 240.398 44.7044C240.302 44.7044 239.727 46.0932 239.124 47.7933C238.437 49.7268 237.837 50.816 237.529 50.7032C237.258 50.604 235.069 49.7773 232.659 48.8631L228.288 47.2058L228.046 40.8257H234.207L235.302 38.4643C235.905 37.165 236.397 35.9395 236.397 35.7411C236.397 35.54 234.536 35.3778 232.234 35.3778H228.071V30.7872H232.046C234.232 30.7872 236.08 30.7234 236.151 30.6452C236.521 30.2406 240.139 24.1484 240.139 23.9539C240.139 23.8146 235.477 23.7002 229.773 23.7002H219.408L219.265 25.9372C219.187 27.1665 219.122 34.1068 219.122 41.3428V54.5309L229.321 57.9544C234.941 59.8373 239.77 61.3934 240.062 61.4128C240.463 61.4399 240.582 59.5338 240.582 53.0876L240.572 53.0685ZM265.133 52.1815V43.3116L260.512 39.0712L264.925 38.6822L265.158 28.8397L258.331 23.7045H243.469V53.9322L247.528 55.2276C249.759 55.9396 251.816 56.6009 252.107 56.6943C252.512 56.8289 252.627 55.1576 252.627 49.1471V41.4443L255.958 44.4826V57.8264L260.017 59.4175C262.248 60.2928 264.304 61.0164 264.596 61.0242C264.997 61.0344 265.116 59.0129 265.116 52.1543L265.133 52.1815ZM252.644 33.0412V30.7304L255.975 30.7732V35.3638H252.644V33.0412ZM156.063 57.3945L166.263 54.5702V23.4867L155.522 23.4653C149.611 23.4535 144.782 23.4738 144.782 23.5104C144.782 23.547 145.777 25.2182 146.988 27.2295L149.194 30.8786L157.229 31.1008L157.066 35.3412L152.57 35.3413C150.11 35.3414 148.074 35.4728 148.074 35.6331C148.071 35.7934 148.586 37.0142 149.219 38.3446L150.368 40.7644L157.028 40.7853V47.1654L147.329 50.7601L146.188 46.9476C145.559 44.8507 144.977 43.1351 144.889 43.1351C144.802 43.1351 144.732 46.9865 144.732 51.6937C144.732 58.2684 144.851 60.2524 145.252 60.2524C145.539 60.2468 150.373 58.9725 155.993 57.4203L156.063 57.3945Z" fill="#020000"/>
</g>
<defs>
<clipPath id="clip0_2_3">
<rect width="296" height="97" fill="white"/>
</clipPath>
</defs>
</svg>
