<svg width="38" height="42" viewBox="0 0 38 42" fill="none" xmlns="http://www.w3.org/2000/svg">
<g filter="url(#filter0_d_10_14)">
<path d="M19 3.16667C17.4342 3.16667 15.9036 3.63097 14.6017 4.50086C13.2998 5.37076 12.2851 6.60717 11.686 8.05376C11.0868 9.50034 10.93 11.0921 11.2355 12.6278C11.5409 14.1635 12.2949 15.5741 13.4021 16.6813C14.5092 17.7884 15.9199 18.5424 17.4555 18.8479C18.9912 19.1534 20.583 18.9966 22.0296 18.3974C23.4762 17.7982 24.7126 16.7835 25.5825 15.4816C26.4524 14.1797 26.9167 12.6491 26.9167 11.0833C26.9167 8.9837 26.0826 6.97007 24.5979 5.4854C23.1133 4.00074 21.0996 3.16667 19 3.16667V3.16667ZM19 15.8333C18.0605 15.8333 17.1422 15.5548 16.361 15.0328C15.5799 14.5109 14.9711 13.769 14.6116 12.9011C14.2521 12.0331 14.158 11.0781 14.3413 10.1567C14.5245 9.23524 14.9769 8.38888 15.6412 7.72458C16.3055 7.06028 17.1519 6.60788 18.0733 6.4246C18.9947 6.24132 19.9498 6.33539 20.8177 6.69491C21.6857 7.05442 22.4275 7.66324 22.9495 8.44437C23.4714 9.22551 23.75 10.1439 23.75 11.0833C23.75 12.3431 23.2496 13.5513 22.3588 14.4421C21.468 15.3329 20.2598 15.8333 19 15.8333V15.8333ZM33.25 33.25V31.6667C33.25 28.7272 32.0823 25.9081 30.0038 23.8296C27.9252 21.751 25.1061 20.5833 22.1667 20.5833H15.8333C12.8939 20.5833 10.0748 21.751 7.99623 23.8296C5.9177 25.9081 4.75 28.7272 4.75 31.6667V33.25H7.91667V31.6667C7.91667 29.567 8.75074 27.5534 10.2354 26.0687C11.7201 24.5841 13.7337 23.75 15.8333 23.75H22.1667C24.2663 23.75 26.2799 24.5841 27.7646 26.0687C29.2493 27.5534 30.0833 29.567 30.0833 31.6667V33.25H33.25Z" fill="#FFD700"/>
</g>
<defs>
<filter id="filter0_d_10_14" x="-4" y="0" width="46" height="46" filterUnits="userSpaceOnUse" color-interpolation-filters="sRGB">
<feFlood flood-opacity="0" result="BackgroundImageFix"/>
<feColorMatrix in="SourceAlpha" type="matrix" values="0 0 0 0 0 0 0 0 0 0 0 0 0 0 0 0 0 0 127 0" result="hardAlpha"/>
<feOffset dy="4"/>
<feGaussianBlur stdDeviation="2"/>
<feComposite in2="hardAlpha" operator="out"/>
<feColorMatrix type="matrix" values="0 0 0 0 0 0 0 0 0 0 0 0 0 0 0 0 0 0 0.25 0"/>
<feBlend mode="normal" in2="BackgroundImageFix" result="effect1_dropShadow_10_14"/>
<feBlend mode="normal" in="SourceGraphic" in2="effect1_dropShadow_10_14" result="shape"/>
</filter>
</defs>
</svg>
